<svg xmlns="http://www.w3.org/2000/svg" xmlns:xlink="http://www.w3.org/1999/xlink" width="22" height="20" viewBox="0 0 22 20"><defs><clipPath id="a"><path d="M21,20H17a1,1,0,0,1-1-1V6a1,1,0,0,1,1-1h4a1,1,0,0,1,1,1V19A1,1,0,0,1,21,20ZM18,7V18h2V7ZM13,20H9a1,1,0,0,1-1-1V1A1,1,0,0,1,9,0h4a1,1,0,0,1,1,1V19A1,1,0,0,1,13,20ZM10,2V18h2V2ZM5,20H1a1,1,0,0,1-1-1V11a1,1,0,0,1,1-1H5a1,1,0,0,1,1,1v8A1,1,0,0,1,5,20ZM2,12v6H4V12Z" transform="translate(1 2)"/></clipPath></defs><g transform="translate(-1 -2)"><path d="M21,20H17a1,1,0,0,1-1-1V6a1,1,0,0,1,1-1h4a1,1,0,0,1,1,1V19A1,1,0,0,1,21,20ZM18,7V18h2V7ZM13,20H9a1,1,0,0,1-1-1V1A1,1,0,0,1,9,0h4a1,1,0,0,1,1,1V19A1,1,0,0,1,13,20ZM10,2V18h2V2ZM5,20H1a1,1,0,0,1-1-1V11a1,1,0,0,1,1-1H5a1,1,0,0,1,1,1v8A1,1,0,0,1,5,20ZM2,12v6H4V12Z" transform="translate(1 2)"/><g clip-path="url(#a)"><rect width="24" height="24" fill="rgba(0,0,0,0)"/><rect width="24" height="24"/></g></g></svg>